<svg xmlns:xlink="http://www.w3.org/1999/xlink" height="31" viewBox="0 0 102 28" xmlns="http://www.w3.org/2000/svg" data-testid="Header2-logo" width="114" ><path fill="#FFFFFF" d="M29.3681 27.3722c-1.2963-.0113-2.582-.2345-3.8057-.6606-1.158-.3881-2.2264-1.0029-3.1423-1.808-.8961-.7935-1.6026-1.7764-2.0679-2.8768-.5155-1.251-.769-2.5936-.7451-3.9455-.009-1.3517.244-2.6925.7451-3.9489.4421-1.1363 1.1512-2.1506 2.0679-2.9581.8683-.8471 1.9132-1.49356 3.0606-1.8935 1.221-.43679 2.5091-.6586 3.8066-.65549 1.215-.00343 2.42.21887 3.5531.65549 1.0735.40356 2.037 1.0521 2.8131 1.8935.8142.876 1.4341 1.9127 1.8195 3.0428.4629 1.2662.6865 2.6067.6592 3.9539v1.404H25.229c.0528.4627.1983.9102.4277 1.316.2645.4134.6009.7764.9935 1.0721.3962.2984.8448.5207 1.3227.6555.4798.1623.9829.2455 1.4895.2464.8012.0316 1.5975-.1382 2.3154-.4937.6114-.323 1.1472-.7712 1.572-1.3152l4.0541 2.5533c-.8245 1.2181-1.9775 2.1798-3.3266 2.7745-1.4081.6523-2.9423.9902-4.4953.9899l-.2139-.0016Zm-1.742-14.5474c-.4656.1479-.8904.4013-1.2411.7402-.3436.2983-.6245.6612-.8268 1.0678-.234.398-.3483.8545-.3292 1.3152h7.5238c.0006-.878-.322-1.7258-.9068-2.383-.3439-.3455-.7589-.6126-1.2165-.7829-.4576-.1703-.9468-.2398-1.434-.2037h-.0539c-.5152.0003-1.027.0836-1.5155.2464Zm68.4054 13.9816c-.4306-.1688-.8235-.4207-1.156-.741-.3187-.3019-.5722-.6653-.7452-1.0679-.1711-.4469-.2567-.9217-.2526-1.3999-.0042-.4507.0816-.8978.2526-1.3151.1697-.4296.4229-.8216.7452-1.1534.3314-.3206.7247-.571 1.156-.736.45-.1689.9278-.2524 1.4086-.2464.4593-.0128.9164.0679 1.3433.2369.4269.1691.8147.423 1.1397.7463.3369.3181.6059.7008.7909 1.125.184.4242.281.8813.283 1.3436.016.4649-.072.9274-.258 1.3542-.186.4268-.464.8071-.8159 1.1135-.6573.6334-1.5362.9875-2.451.9874h-.0631c-.4703-.0003-.9367-.084-1.3775-.2472Zm-11.9914-.0839v-9.6228c-.009-.471-.0654-.94-.1684-1.3998-.093-.3996-.2367-.7858-.4277-1.1492-.2088-.3304-.4883-.6109-.8184-.8215-.4077-.2191-.8636-.3343-1.327-.3352-.4899-.0164-.9752.0994-1.4044.3352-.4001.1787-.7437.4627-.9935.8215-.2829.3605-.4738.7839-.5566 1.2339-.1379.452-.1949.9247-.1684 1.3964v9.5399h-5.8829V9.12824h5.6261v2.46356h.0842c.2469-.4026.5229-.7867.826-1.1492.3617-.3675.7815-.67329 1.2428-.90531.4781-.25478.9745-.47388 1.4852-.65549.5651-.16288 1.1504-.24584 1.7387-.24643 1.0568-.01444 2.1032.20966 3.0606.65549.7821.38756 1.4625.95154 1.987 1.64714.5221.6803.8887 1.4658 1.0744 2.3017.1947.8642.305 1.7451.3292 2.6304v10.8508l-5.7069.0016Zm-22.0867 0V9.12824h5.8745V26.7209l-5.8745.0016Zm-15.5496 0-6.948-17.59426h6.4521l3.7207 11.42586h.0842l3.7215-11.42586h6.2037L52.6891 26.7209l-6.2853.0016Zm-34.5749 0-5.79278-8.466h-.1625v8.466H0V0h5.87362v16.2825h.0842l5.62528-7.15426h7.1088l-6.8453 7.97146 7.182 9.6212-7.1997.0016ZM64.8523 6.65968c-.8853.00217-1.7403-.32075-2.4013-.90696-.3085-.28276-.5557-.62525-.7266-1.00649-.1708-.38123-.2617-.79319-.2669-1.21061.005-.42349.0907-.84218.2526-1.23386.1511-.39157.4092-.73329.7451-.98659.3256-.26527.6855-.485742 1.0702-.655489.4214-.169183.8725-.253238 1.3269-.247276.4488-.074382.9095-.018207 1.327.161777.3857.171793.747.393609 1.0743.659678.2938.29266.5446.62507.7452.98743.1698.4177.2557.86454.2526 1.31517.0023.42424-.0837.84437-.2526 1.23386-.1523.39003-.4103.73038-.7452.98324-.3273.26632-.6886.48841-1.0743.66052-.4073.16496-.8427.25034-1.2824.25146l-.0446-.00586Z"></path></svg>